<?xml version="1.0" encoding="UTF-8" standalone="no"?>
<!-- Created with Inkscape (http://www.inkscape.org/) -->

<svg
   xmlns:dc="http://purl.org/dc/elements/1.1/"
   xmlns:cc="http://creativecommons.org/ns#"
   xmlns:rdf="http://www.w3.org/1999/02/22-rdf-syntax-ns#"
   xmlns:svg="http://www.w3.org/2000/svg"
   xmlns="http://www.w3.org/2000/svg"
   xmlns:sodipodi="http://sodipodi.sourceforge.net/DTD/sodipodi-0.dtd"
   xmlns:inkscape="http://www.inkscape.org/namespaces/inkscape"
   width="731.42932mm"
   height="339.83502mm"
   viewBox="0 0 731.42933 339.83502"
   version="1.1"
   id="svg8"
   inkscape:version="0.92.3 (2405546, 2018-03-11)"
   sodipodi:docname="dragme.svg">
  <defs
     id="defs2" />
  <sodipodi:namedview
     id="base"
     pagecolor="#ffffff"
     bordercolor="#666666"
     borderopacity="1.0"
     inkscape:pageopacity="0.0"
     inkscape:pageshadow="2"
     inkscape:zoom="0.64371829"
     inkscape:cx="901.73089"
     inkscape:cy="709.47064"
     inkscape:document-units="mm"
     inkscape:current-layer="layer1"
     showgrid="false"
     inkscape:pagecheckerboard="true"
     fit-margin-top="0"
     fit-margin-left="0"
     fit-margin-right="0"
     fit-margin-bottom="0"
     inkscape:window-width="1853"
     inkscape:window-height="1011"
     inkscape:window-x="67"
     inkscape:window-y="41"
     inkscape:window-maximized="1" />
  <metadata
     id="metadata5">
    <rdf:RDF>
      <cc:Work
         rdf:about="">
        <dc:format>image/svg+xml</dc:format>
        <dc:type
           rdf:resource="http://purl.org/dc/dcmitype/StillImage" />
        <dc:title></dc:title>
      </cc:Work>
    </rdf:RDF>
  </metadata>
  <g
     inkscape:label="Layer 1"
     inkscape:groupmode="layer"
     id="layer1"
     transform="translate(55.265095,14.520544)">
    <g
       aria-label="Drag me "
       transform="scale(0.86344222,1.1581551)"
       style="font-style:oblique;font-variant:normal;font-weight:bold;font-stretch:normal;font-size:106.31073761px;line-height:125%;font-family:Purisa;-inkscape-font-specification:'Purisa Bold Oblique';letter-spacing:0px;word-spacing:0px;fill:#ffffff;fill-opacity:1;stroke:#ffffff;stroke-width:40;stroke-linecap:butt;stroke-linejoin:miter;stroke-miterlimit:4;stroke-dasharray:none;stroke-opacity:1"
       id="text3715">
      <path
         d="m -11.049222,18.837599 q -2.657768,0 -3.401943,0.531553 -0.744176,0.531554 -1.275729,2.764079 -0.744176,3.614565 -1.275729,15.521368 -0.531554,11.800492 -1.700972,23.919916 -1.063107,12.119424 -3.401944,18.179136 l -1.48835,3.827187 h 4.35874 q 9.5679667,0 24.7704022,-12.96991 8.7174808,-7.335441 12.7572888,-14.883504 4.039808,-7.548062 6.378644,-18.498068 0.744175,-3.933497 0.744175,-4.890294 0,-2.126215 -2.338836,-5.209226 Q 21.162932,24.684689 18.292542,23.515271 15.528463,22.239542 8.6182646,20.963813 -4.1390239,18.837599 -11.049222,18.837599 Z m -32.850018,2.445146 q 0.744175,-2.551457 2.976701,-4.677672 2.232525,-2.232525 3.827186,-2.232525 0.850486,-0.318933 1.700972,-1.063108 0.850486,-0.850486 1.700972,-1.700972 0.850486,-0.850486 3.720876,-1.7009714 2.87039,-0.9567967 7.548062,-1.3820396 11.375249,-1.0631074 15.5213679,-1.0631074 4.8902939,0 11.6941811,1.1694181 16.690786,2.7640793 23.919916,7.7606843 7.22913,4.890293 7.22913,13.926706 0,2.87039 -0.850486,6.910198 -2.338836,11.056317 -8.504859,20.943215 -6.166023,9.886899 -14.033017,16.584476 -7.760684,6.697576 -15.8403,11.056316 -8.079616,4.35874 -15.308746,5.847091 -2.657769,0.637864 -4.146119,2.019904 -1.48835,1.48835 -2.019904,2.764079 -0.425243,1.275729 -1.807283,2.232525 -1.382039,1.063108 -3.933497,1.063108 -4.146119,0 -4.146119,-2.551458 -0.10631,-0.106311 -1.382039,-0.637864 -1.169418,-0.531554 -2.126215,-1.488351 -0.850486,-0.956796 -0.850486,-2.657768 0,-1.594661 0.956797,-3.508254 0.956796,-2.019904 3.189322,-2.76408 1.382039,-0.850485 2.764079,-7.548062 0.850486,-4.146119 1.169418,-8.504859 0.425243,-4.35874 1.063108,-13.182531 0.744175,-8.930102 2.019904,-19.773798 l 1.913593,-16.478164 -2.445147,0.212622 q -3.295633,0.425242 -6.910198,3.189322 -3.614565,2.657768 -4.890294,2.657768 -1.275729,0 -2.551458,-1.594661 -1.275729,-1.594661 -1.275729,-3.189322 0,-0.106311 0,-0.318932 0.106311,-0.212622 0.106311,-0.318933 z"
         style="font-style:oblique;font-variant:normal;font-weight:bold;font-stretch:normal;font-size:106.31073761px;font-family:Purisa;-inkscape-font-specification:'Purisa Bold Oblique';fill:#ffffff;fill-opacity:1;stroke:#ffffff;stroke-width:40;stroke-miterlimit:4;stroke-dasharray:none;stroke-opacity:1"
         id="path4542"
         inkscape:connector-curvature="0" />
      <path
         d="m 61.587592,37.016735 q 0,0.10631 -0.212621,1.275729 -0.106311,1.063107 -0.425243,2.9767 -0.212622,1.913593 -0.531554,4.35874 -0.212621,2.445147 -0.425243,5.847091 -0.106311,3.401944 -0.106311,6.910198 v 2.126215 q 1.38204,-1.38204 3.295633,-3.614565 5.315537,-6.591266 13.714085,-11.800492 8.398549,-5.315537 13.607775,-5.315537 2.657768,0 3.827186,1.275729 1.169418,1.275729 1.169418,2.551457 0,2.338837 -5.634469,4.25243 -7.016508,2.445147 -16.690785,12.013113 -9.567967,9.567967 -12.96991,17.966515 -4.25243,10.631074 -6.484955,14.245639 -2.126215,3.614565 -4.783984,3.614565 -3.720875,0 -3.720875,-4.571362 0,-1.063107 0.744175,-8.185927 0.850486,-7.22913 2.551457,-18.71069 1.700972,-11.481559 3.508255,-20.19904 0.744175,-3.508254 1.594661,-5.421847 0.956797,-2.019904 2.87039,-3.508255 1.275729,-0.956796 2.551457,-0.956796 2.551458,0 2.551458,2.87039 z"
         style="font-style:oblique;font-variant:normal;font-weight:bold;font-stretch:normal;font-size:106.31073761px;font-family:Purisa;-inkscape-font-specification:'Purisa Bold Oblique';fill:#ffffff;fill-opacity:1;stroke:#ffffff;stroke-width:40;stroke-miterlimit:4;stroke-dasharray:none;stroke-opacity:1"
         id="path4544"
         inkscape:connector-curvature="0" />
      <path
         d="m 113.37421,81.02938 q 0,1.275729 1.9136,2.126215 2.0199,0.850486 3.61456,0.850486 2.33884,0 6.05971,-1.169418 3.82719,-1.169419 6.48496,-2.232526 l 2.55146,-1.169418 q 0.31893,-1.38204 4.57136,-4.465051 4.35874,-3.083011 4.35874,-3.720876 0,-0.531554 -0.63786,-1.275729 -0.53156,-0.744175 -3.08302,-1.594661 -2.44514,-0.850486 -6.59126,-0.850486 -9.03641,0 -14.13933,4.571362 -5.10292,4.571362 -5.10292,8.930102 z m 45.07576,-34.869922 q 0,2.87039 -2.9767,17.860204 -2.9767,14.989814 -3.72088,22.218944 -0.74417,2.445147 -2.76408,4.25243 -2.0199,1.700971 -3.08301,1.700971 -3.29563,0 -3.29563,-6.484955 0,-0.744175 0.31893,-5.209226 -4.25243,3.933498 -11.69418,7.654373 -7.44175,3.614566 -12.01311,3.614566 -2.97671,0 -7.01651,-0.956797 -3.9335,-0.956797 -5.52816,-2.338836 -1.59466,-1.488351 -1.59466,-5.528159 0,-7.654373 3.93349,-11.906802 3.9335,-4.25243 12.01312,-7.866995 8.50486,-3.933497 15.41505,-3.933497 2.97671,0 4.78399,0.744175 1.80728,0.744175 2.65777,1.807283 0.95679,0.956796 1.0631,0.956796 1.59466,0.318932 2.65777,1.38204 2.01991,-9.355345 2.01991,-15.096125 0,-7.548062 -4.14612,-7.548062 -5.10292,0 -11.48156,2.019904 -6.27234,2.019904 -11.48156,4.146118 -5.10292,2.019904 -7.22913,2.019904 -2.23253,0 -2.23253,-1.913593 0,-0.106311 0,-0.212621 0.10631,-0.212622 0.10631,-0.318933 0.42525,-1.807282 1.38204,-3.083011 0.9568,-1.38204 3.18932,-2.445147 2.33884,-1.169418 3.9335,-1.807282 1.70097,-0.637865 6.05971,-2.019904 4.35874,-1.38204 6.9102,-2.338837 6.37865,-2.232525 11.69418,-2.232525 8.61117,0 11.16263,8.079616 0.9568,2.657768 0.9568,4.783983 z"
         style="font-style:oblique;font-variant:normal;font-weight:bold;font-stretch:normal;font-size:106.31073761px;font-family:Purisa;-inkscape-font-specification:'Purisa Bold Oblique';fill:#ffffff;fill-opacity:1;stroke:#ffffff;stroke-width:40;stroke-miterlimit:4;stroke-dasharray:none;stroke-opacity:1"
         id="path4546"
         inkscape:connector-curvature="0" />
      <path
         d="m 180.0759,64.870148 q -0.42524,1.807282 -0.42524,4.146119 0,4.571361 1.91359,7.760684 2.0199,3.083011 5.63447,3.083011 6.37864,0 15.20243,-5.528158 8.8238,-5.63447 15.52137,-14.35195 3.9335,-5.209226 7.44175,-12.225735 3.61457,-7.016509 3.61457,-10.205831 -1.70097,-0.956796 -7.12282,-0.956796 -4.89029,0 -8.71748,0.956796 -6.59127,1.700972 -14.24564,7.016509 -7.65437,5.209226 -12.8636,10.950006 -5.20923,5.74078 -5.9534,9.355345 z m 15.52137,26.471374 q 0,1.48835 -1.80729,3.933497 -1.80728,2.445147 -1.80728,3.827186 0,2.019905 3.08301,3.827185 3.18933,1.80728 5.52816,1.80728 2.12622,0 5.52816,2.12622 3.40194,2.12621 5.9534,2.12621 3.9335,0 4.67767,-3.18932 1.70098,-8.185925 2.23253,-13.501462 0.63786,-5.209226 0.63786,-8.930102 0,-3.720876 0.21263,-5.953401 0.74417,-4.996605 0.95679,-7.760684 -3.72087,3.933497 -11.16263,8.717481 -7.44175,4.677672 -12.22573,6.272333 -5.63447,1.807283 -11.80049,1.807283 -3.82719,0 -6.05971,-0.850486 -2.12622,-0.850486 -4.99661,-3.720876 -2.65777,-2.657769 -3.61456,-4.890294 -0.9568,-2.232525 -0.9568,-5.74078 0,-3.827186 0.74417,-7.441751 0.85049,-4.25243 6.27234,-11.162628 5.42185,-6.910198 8.82379,-10.205831 3.18932,-3.189322 10.73738,-7.016508 7.54807,-3.933498 12.96991,-5.421848 5.74078,-1.700972 12.75729,-1.700972 7.76069,0 12.75729,2.338836 5.10292,2.338837 5.10292,7.441752 0,3.614565 -2.9767,9.355345 -2.97671,5.634469 -3.61457,8.398548 -0.42524,1.913593 -0.9568,5.528159 -0.42524,3.508254 -1.59466,11.906802 -1.0631,8.398548 -2.23252,16.584475 l -3.08301,22.006319 -4.99661,3.40195 q -3.9335,2.76408 -7.54806,2.76408 -6.16602,0 -14.13933,-2.76408 -7.9733,-2.65777 -13.71408,-6.59127 -5.63447,-3.82718 -5.63447,-6.80389 0,-3.083007 4.78398,-7.973301 4.78398,-4.783983 7.65437,-4.783983 3.50826,0 3.50826,2.232526 z"
         style="font-style:oblique;font-variant:normal;font-weight:bold;font-stretch:normal;font-size:106.31073761px;font-family:Purisa;-inkscape-font-specification:'Purisa Bold Oblique';fill:#ffffff;fill-opacity:1;stroke:#ffffff;stroke-width:40;stroke-miterlimit:4;stroke-dasharray:none;stroke-opacity:1"
         id="path4548"
         inkscape:connector-curvature="0" />
      <path
         d="m 357.0135,90.703657 q 0,-1.807282 2.0199,-14.45826 2.12621,-12.650978 2.12621,-18.71069 0,-6.803887 -3.08301,-12.119424 -1.80728,-3.189322 -2.44514,-3.189322 -1.70098,0.425243 -12.33205,15.94661 -2.76408,4.039808 -3.72088,8.185927 -0.53155,2.551458 -2.12621,5.315537 -1.59466,2.764079 -4.25243,13.607775 -0.21262,0.956796 -0.74418,3.083011 -0.42524,2.126215 -0.74417,3.083011 -0.21262,0.956797 -0.74418,2.551458 -0.42524,1.594661 -0.85048,2.338836 -0.42524,0.744175 -1.06311,1.594661 -0.53155,0.850486 -1.38204,1.169418 -0.74417,0.425243 -1.70097,0.425243 -2.55146,0 -2.55146,-4.039808 0,-4.677672 3.72088,-21.793701 1.06311,-4.996605 2.0199,-10.312141 0.9568,-5.421848 1.48835,-9.249035 0.53156,-3.827186 1.06311,-7.548062 0.53155,-3.827187 0.9568,-6.272333 0.53155,-2.551458 1.16941,-4.465051 0.63787,-2.019904 1.48835,-2.87039 0.9568,-0.956797 2.12622,-0.956797 2.33884,0 2.33884,7.016509 0,1.807282 -0.21263,5.315537 -0.10631,3.508254 -0.10631,4.783983 0.9568,-1.594661 1.48835,-2.338836 0.53156,-0.744176 0.85049,-0.956797 0.42524,-0.318932 1.59466,-1.594661 1.16942,-1.38204 2.87039,-3.720876 3.72088,-4.890294 5.52816,-6.059712 1.91359,-1.275729 5.84709,-1.275729 4.25243,0 8.07962,5.102916 1.80728,2.338836 2.33883,4.35874 0.63787,2.019904 0.63787,5.634469 0,1.063107 -0.21263,5.102915 l -0.10631,3.933498 q 4.99661,-9.461656 12.43836,-16.797097 7.44175,-7.335441 13.28884,-7.335441 3.61457,0 5.42185,3.295633 1.91359,3.189322 2.0199,7.973305 0,5.209226 -4.0398,24.026227 -2.44515,11.48156 -3.9335,16.584475 -1.48835,5.102915 -2.65777,6.591266 -1.06311,1.382039 -3.08301,1.382039 -2.0199,0 -2.0199,-2.232525 0,-1.594661 3.72087,-20.730594 3.82719,-19.135933 3.82719,-25.727198 0,-4.465051 -1.48835,-4.465051 -0.9568,0 -3.29564,2.232525 -2.33883,2.232526 -5.52815,6.697577 -3.18933,4.35874 -6.59127,9.993209 -3.29563,5.634469 -6.59127,13.501464 -3.29563,7.760683 -5.42184,15.733989 -1.59466,5.84709 -4.8903,5.84709 -2.55145,0 -2.55145,-3.189322 z"
         style="font-style:oblique;font-variant:normal;font-weight:bold;font-stretch:normal;font-size:106.31073761px;font-family:Purisa;-inkscape-font-specification:'Purisa Bold Oblique';fill:#ffffff;fill-opacity:1;stroke:#ffffff;stroke-width:40;stroke-miterlimit:4;stroke-dasharray:none;stroke-opacity:1"
         id="path4550"
         inkscape:connector-curvature="0" />
      <path
         d="m 463.8425,50.092955 q 0.42525,-0.531553 0.42525,-0.956796 0,-0.425243 -0.53156,-1.063108 -0.53155,-0.637864 -1.91359,-1.913593 l -1.27573,-1.275729 q -2.76408,-2.551457 -4.14612,-3.189322 -1.38204,-0.637864 -4.0398,-0.637864 -5.31554,0 -7.97331,0.850486 -2.65777,0.744175 -5.9534,3.401943 -9.99321,8.079616 -10.52476,10.312142 0.42524,0.10631 1.80728,0.10631 10.31214,0 29.34176,-3.614565 1.91359,-0.318932 3.18932,-0.956796 1.27573,-0.637865 1.59466,-1.063108 z m 4.78399,18.817001 q 4.14612,-2.87039 5.74078,-2.87039 1.59466,0 1.59466,1.594661 0,2.126215 -4.03981,6.910198 -3.9335,4.677672 -8.39855,7.973305 -14.03301,10.205831 -26.68399,10.205831 -8.82379,0 -15.20244,-5.953401 -6.37864,-6.059712 -6.37864,-16.797097 0,-8.930102 3.72087,-15.733989 3.72088,-6.591266 12.96991,-13.714085 9.24904,-7.22913 16.37186,-7.22913 1.80728,0 5.52816,0.318932 5.63446,0.425243 7.86699,1.169418 2.23253,0.637865 4.89029,2.657769 2.55146,2.019904 4.35874,5.421847 1.9136,3.401944 1.9136,6.484955 0,2.232526 -1.06311,4.039808 -1.06311,1.700972 -2.44515,2.764079 -1.38204,1.063108 -3.93349,2.019904 -2.55146,0.850486 -4.46506,1.275729 -1.80728,0.425243 -4.78398,0.956797 -10.73738,2.019904 -21.7937,2.657768 l -9.35534,0.425243 -0.53156,2.76408 q -0.42524,2.338836 -0.42524,3.189322 0,4.996604 4.9966,9.993209 4.57137,4.677672 10.52477,4.677672 4.67767,0 10.52476,-2.764079 5.84709,-2.87039 10.09952,-6.272333 4.35874,-3.401944 8.39855,-6.166023 z"
         style="font-style:oblique;font-variant:normal;font-weight:bold;font-stretch:normal;font-size:106.31073761px;font-family:Purisa;-inkscape-font-specification:'Purisa Bold Oblique';fill:#ffffff;fill-opacity:1;stroke:#ffffff;stroke-width:40;stroke-miterlimit:4;stroke-dasharray:none;stroke-opacity:1"
         id="path4552"
         inkscape:connector-curvature="0" />
    </g>
    <flowRoot
       xml:space="preserve"
       id="flowRoot3717"
       style="font-style:normal;font-variant:normal;font-weight:bold;font-stretch:normal;font-size:40px;line-height:125%;font-family:sans-serif;-inkscape-font-specification:'sans-serif Bold';letter-spacing:0px;word-spacing:0px;fill:#000000;fill-opacity:1;stroke:none;stroke-width:1px;stroke-linecap:butt;stroke-linejoin:miter;stroke-opacity:1"
       transform="scale(0.26458333)"><flowRegion
         id="flowRegion3719"
         style="font-style:normal;font-variant:normal;font-weight:bold;font-stretch:normal;font-family:sans-serif;-inkscape-font-specification:'sans-serif Bold'"><rect
           id="rect3721"
           width="240"
           height="140"
           x="120"
           y="319.66254"
           style="font-style:normal;font-variant:normal;font-weight:bold;font-stretch:normal;font-family:sans-serif;-inkscape-font-specification:'sans-serif Bold'" /></flowRegion><flowPara
         id="flowPara3723" /></flowRoot>    <path
       style="fill:none;fill-rule:evenodd;stroke:#feffff;stroke-width:40;stroke-linecap:round;stroke-linejoin:round;stroke-miterlimit:4;stroke-dasharray:none;stroke-opacity:1"
       d="M 445.25594,73.994046 C 598.71427,89.869046 575.27975,265.25 575.27975,265.25"
       id="path3733"
       inkscape:connector-curvature="0"
       sodipodi:nodetypes="cc" />
    <path
       style="fill:#efffff;fill-opacity:1;fill-rule:evenodd;stroke:#ffffff;stroke-width:40;stroke-linecap:round;stroke-linejoin:round;stroke-miterlimit:4;stroke-dasharray:none;stroke-opacity:1"
       d="m 575.27975,305.31548 -83.15476,-91.47024 164.04167,-0.75596 z"
       id="path5046"
       inkscape:connector-curvature="0" />
    <path
       sodipodi:nodetypes="cc"
       inkscape:connector-curvature="0"
       id="use5076"
       d="M 445.25594,73.994046 C 598.71427,89.869046 575.27975,265.25 575.27975,265.25"
       style="fill:none;fill-rule:evenodd;stroke:#00000e;stroke-width:20;stroke-linecap:round;stroke-linejoin:round;stroke-miterlimit:4;stroke-dasharray:none;stroke-opacity:1" />
    <path
       inkscape:connector-curvature="0"
       id="use5078"
       d="m 575.27975,305.31548 -83.15476,-91.47024 164.04167,-0.75596 z"
       style="fill:#000000;fill-opacity:1;fill-rule:evenodd;stroke:#000000;stroke-width:20;stroke-linecap:round;stroke-linejoin:round;stroke-miterlimit:4;stroke-dasharray:none;stroke-opacity:1" />
    <g
       aria-label="Drag me "
       transform="scale(0.86344222,1.1581551)"
       style="font-style:oblique;font-variant:normal;font-weight:bold;font-stretch:normal;font-size:106.31073761px;line-height:125%;font-family:Purisa;-inkscape-font-specification:'Purisa Bold Oblique';letter-spacing:0px;word-spacing:0px;fill:#ffffff;fill-opacity:1;stroke:#000000;stroke-width:20;stroke-linecap:butt;stroke-linejoin:miter;stroke-miterlimit:4;stroke-dasharray:none;stroke-opacity:1"
       id="text4527">
      <path
         d="m -11.049222,18.837599 q -2.657768,0 -3.401943,0.531553 -0.744176,0.531554 -1.275729,2.764079 -0.744176,3.614565 -1.275729,15.521368 -0.531554,11.800492 -1.700972,23.919916 -1.063107,12.119424 -3.401944,18.179136 l -1.48835,3.827187 h 4.35874 q 9.5679667,0 24.7704022,-12.96991 8.7174808,-7.335441 12.7572888,-14.883504 4.039808,-7.548062 6.378644,-18.498068 0.744175,-3.933497 0.744175,-4.890294 0,-2.126215 -2.338836,-5.209226 Q 21.162932,24.684689 18.292542,23.515271 15.528463,22.239542 8.6182646,20.963813 -4.1390239,18.837599 -11.049222,18.837599 Z m -32.850018,2.445146 q 0.744175,-2.551457 2.976701,-4.677672 2.232525,-2.232525 3.827186,-2.232525 0.850486,-0.318933 1.700972,-1.063108 0.850486,-0.850486 1.700972,-1.700972 0.850486,-0.850486 3.720876,-1.7009714 2.87039,-0.9567967 7.548062,-1.3820396 11.375249,-1.0631074 15.5213679,-1.0631074 4.8902939,0 11.6941811,1.1694181 16.690786,2.7640793 23.919916,7.7606843 7.22913,4.890293 7.22913,13.926706 0,2.87039 -0.850486,6.910198 -2.338836,11.056317 -8.504859,20.943215 -6.166023,9.886899 -14.033017,16.584476 -7.760684,6.697576 -15.8403,11.056316 -8.079616,4.35874 -15.308746,5.847091 -2.657769,0.637864 -4.146119,2.019904 -1.48835,1.48835 -2.019904,2.764079 -0.425243,1.275729 -1.807283,2.232525 -1.382039,1.063108 -3.933497,1.063108 -4.146119,0 -4.146119,-2.551458 -0.10631,-0.106311 -1.382039,-0.637864 -1.169418,-0.531554 -2.126215,-1.488351 -0.850486,-0.956796 -0.850486,-2.657768 0,-1.594661 0.956797,-3.508254 0.956796,-2.019904 3.189322,-2.76408 1.382039,-0.850485 2.764079,-7.548062 0.850486,-4.146119 1.169418,-8.504859 0.425243,-4.35874 1.063108,-13.182531 0.744175,-8.930102 2.019904,-19.773798 l 1.913593,-16.478164 -2.445147,0.212622 q -3.295633,0.425242 -6.910198,3.189322 -3.614565,2.657768 -4.890294,2.657768 -1.275729,0 -2.551458,-1.594661 -1.275729,-1.594661 -1.275729,-3.189322 0,-0.106311 0,-0.318932 0.106311,-0.212622 0.106311,-0.318933 z"
         style="font-style:oblique;font-variant:normal;font-weight:bold;font-stretch:normal;font-size:106.31073761px;font-family:Purisa;-inkscape-font-specification:'Purisa Bold Oblique';fill:#ffffff;fill-opacity:1;stroke:#000000;stroke-width:20;stroke-miterlimit:4;stroke-dasharray:none;stroke-opacity:1"
         id="path4529"
         inkscape:connector-curvature="0" />
      <path
         d="m 61.587592,37.016735 q 0,0.10631 -0.212621,1.275729 -0.106311,1.063107 -0.425243,2.9767 -0.212622,1.913593 -0.531554,4.35874 -0.212621,2.445147 -0.425243,5.847091 -0.106311,3.401944 -0.106311,6.910198 v 2.126215 q 1.38204,-1.38204 3.295633,-3.614565 5.315537,-6.591266 13.714085,-11.800492 8.398549,-5.315537 13.607775,-5.315537 2.657768,0 3.827186,1.275729 1.169418,1.275729 1.169418,2.551457 0,2.338837 -5.634469,4.25243 -7.016508,2.445147 -16.690785,12.013113 -9.567967,9.567967 -12.96991,17.966515 -4.25243,10.631074 -6.484955,14.245639 -2.126215,3.614565 -4.783984,3.614565 -3.720875,0 -3.720875,-4.571362 0,-1.063107 0.744175,-8.185927 0.850486,-7.22913 2.551457,-18.71069 1.700972,-11.481559 3.508255,-20.19904 0.744175,-3.508254 1.594661,-5.421847 0.956797,-2.019904 2.87039,-3.508255 1.275729,-0.956796 2.551457,-0.956796 2.551458,0 2.551458,2.87039 z"
         style="font-style:oblique;font-variant:normal;font-weight:bold;font-stretch:normal;font-size:106.31073761px;font-family:Purisa;-inkscape-font-specification:'Purisa Bold Oblique';fill:#ffffff;fill-opacity:1;stroke:#000000;stroke-width:20;stroke-miterlimit:4;stroke-dasharray:none;stroke-opacity:1"
         id="path4531"
         inkscape:connector-curvature="0" />
      <path
         d="m 113.37421,81.02938 q 0,1.275729 1.9136,2.126215 2.0199,0.850486 3.61456,0.850486 2.33884,0 6.05971,-1.169418 3.82719,-1.169419 6.48496,-2.232526 l 2.55146,-1.169418 q 0.31893,-1.38204 4.57136,-4.465051 4.35874,-3.083011 4.35874,-3.720876 0,-0.531554 -0.63786,-1.275729 -0.53156,-0.744175 -3.08302,-1.594661 -2.44514,-0.850486 -6.59126,-0.850486 -9.03641,0 -14.13933,4.571362 -5.10292,4.571362 -5.10292,8.930102 z m 45.07576,-34.869922 q 0,2.87039 -2.9767,17.860204 -2.9767,14.989814 -3.72088,22.218944 -0.74417,2.445147 -2.76408,4.25243 -2.0199,1.700971 -3.08301,1.700971 -3.29563,0 -3.29563,-6.484955 0,-0.744175 0.31893,-5.209226 -4.25243,3.933498 -11.69418,7.654373 -7.44175,3.614566 -12.01311,3.614566 -2.97671,0 -7.01651,-0.956797 -3.9335,-0.956797 -5.52816,-2.338836 -1.59466,-1.488351 -1.59466,-5.528159 0,-7.654373 3.93349,-11.906802 3.9335,-4.25243 12.01312,-7.866995 8.50486,-3.933497 15.41505,-3.933497 2.97671,0 4.78399,0.744175 1.80728,0.744175 2.65777,1.807283 0.95679,0.956796 1.0631,0.956796 1.59466,0.318932 2.65777,1.38204 2.01991,-9.355345 2.01991,-15.096125 0,-7.548062 -4.14612,-7.548062 -5.10292,0 -11.48156,2.019904 -6.27234,2.019904 -11.48156,4.146118 -5.10292,2.019904 -7.22913,2.019904 -2.23253,0 -2.23253,-1.913593 0,-0.106311 0,-0.212621 0.10631,-0.212622 0.10631,-0.318933 0.42525,-1.807282 1.38204,-3.083011 0.9568,-1.38204 3.18932,-2.445147 2.33884,-1.169418 3.9335,-1.807282 1.70097,-0.637865 6.05971,-2.019904 4.35874,-1.38204 6.9102,-2.338837 6.37865,-2.232525 11.69418,-2.232525 8.61117,0 11.16263,8.079616 0.9568,2.657768 0.9568,4.783983 z"
         style="font-style:oblique;font-variant:normal;font-weight:bold;font-stretch:normal;font-size:106.31073761px;font-family:Purisa;-inkscape-font-specification:'Purisa Bold Oblique';fill:#ffffff;fill-opacity:1;stroke:#000000;stroke-width:20;stroke-miterlimit:4;stroke-dasharray:none;stroke-opacity:1"
         id="path4533"
         inkscape:connector-curvature="0" />
      <path
         d="m 180.0759,64.870148 q -0.42524,1.807282 -0.42524,4.146119 0,4.571361 1.91359,7.760684 2.0199,3.083011 5.63447,3.083011 6.37864,0 15.20243,-5.528158 8.8238,-5.63447 15.52137,-14.35195 3.9335,-5.209226 7.44175,-12.225735 3.61457,-7.016509 3.61457,-10.205831 -1.70097,-0.956796 -7.12282,-0.956796 -4.89029,0 -8.71748,0.956796 -6.59127,1.700972 -14.24564,7.016509 -7.65437,5.209226 -12.8636,10.950006 -5.20923,5.74078 -5.9534,9.355345 z m 15.52137,26.471374 q 0,1.48835 -1.80729,3.933497 -1.80728,2.445147 -1.80728,3.827186 0,2.019905 3.08301,3.827185 3.18933,1.80728 5.52816,1.80728 2.12622,0 5.52816,2.12622 3.40194,2.12621 5.9534,2.12621 3.9335,0 4.67767,-3.18932 1.70098,-8.185925 2.23253,-13.501462 0.63786,-5.209226 0.63786,-8.930102 0,-3.720876 0.21263,-5.953401 0.74417,-4.996605 0.95679,-7.760684 -3.72087,3.933497 -11.16263,8.717481 -7.44175,4.677672 -12.22573,6.272333 -5.63447,1.807283 -11.80049,1.807283 -3.82719,0 -6.05971,-0.850486 -2.12622,-0.850486 -4.99661,-3.720876 -2.65777,-2.657769 -3.61456,-4.890294 -0.9568,-2.232525 -0.9568,-5.74078 0,-3.827186 0.74417,-7.441751 0.85049,-4.25243 6.27234,-11.162628 5.42185,-6.910198 8.82379,-10.205831 3.18932,-3.189322 10.73738,-7.016508 7.54807,-3.933498 12.96991,-5.421848 5.74078,-1.700972 12.75729,-1.700972 7.76069,0 12.75729,2.338836 5.10292,2.338837 5.10292,7.441752 0,3.614565 -2.9767,9.355345 -2.97671,5.634469 -3.61457,8.398548 -0.42524,1.913593 -0.9568,5.528159 -0.42524,3.508254 -1.59466,11.906802 -1.0631,8.398548 -2.23252,16.584475 l -3.08301,22.006319 -4.99661,3.40195 q -3.9335,2.76408 -7.54806,2.76408 -6.16602,0 -14.13933,-2.76408 -7.9733,-2.65777 -13.71408,-6.59127 -5.63447,-3.82718 -5.63447,-6.80389 0,-3.083007 4.78398,-7.973301 4.78398,-4.783983 7.65437,-4.783983 3.50826,0 3.50826,2.232526 z"
         style="font-style:oblique;font-variant:normal;font-weight:bold;font-stretch:normal;font-size:106.31073761px;font-family:Purisa;-inkscape-font-specification:'Purisa Bold Oblique';fill:#ffffff;fill-opacity:1;stroke:#000000;stroke-width:20;stroke-miterlimit:4;stroke-dasharray:none;stroke-opacity:1"
         id="path4535"
         inkscape:connector-curvature="0" />
      <path
         d="m 357.0135,90.703657 q 0,-1.807282 2.0199,-14.45826 2.12621,-12.650978 2.12621,-18.71069 0,-6.803887 -3.08301,-12.119424 -1.80728,-3.189322 -2.44514,-3.189322 -1.70098,0.425243 -12.33205,15.94661 -2.76408,4.039808 -3.72088,8.185927 -0.53155,2.551458 -2.12621,5.315537 -1.59466,2.764079 -4.25243,13.607775 -0.21262,0.956796 -0.74418,3.083011 -0.42524,2.126215 -0.74417,3.083011 -0.21262,0.956797 -0.74418,2.551458 -0.42524,1.594661 -0.85048,2.338836 -0.42524,0.744175 -1.06311,1.594661 -0.53155,0.850486 -1.38204,1.169418 -0.74417,0.425243 -1.70097,0.425243 -2.55146,0 -2.55146,-4.039808 0,-4.677672 3.72088,-21.793701 1.06311,-4.996605 2.0199,-10.312141 0.9568,-5.421848 1.48835,-9.249035 0.53156,-3.827186 1.06311,-7.548062 0.53155,-3.827187 0.9568,-6.272333 0.53155,-2.551458 1.16941,-4.465051 0.63787,-2.019904 1.48835,-2.87039 0.9568,-0.956797 2.12622,-0.956797 2.33884,0 2.33884,7.016509 0,1.807282 -0.21263,5.315537 -0.10631,3.508254 -0.10631,4.783983 0.9568,-1.594661 1.48835,-2.338836 0.53156,-0.744176 0.85049,-0.956797 0.42524,-0.318932 1.59466,-1.594661 1.16942,-1.38204 2.87039,-3.720876 3.72088,-4.890294 5.52816,-6.059712 1.91359,-1.275729 5.84709,-1.275729 4.25243,0 8.07962,5.102916 1.80728,2.338836 2.33883,4.35874 0.63787,2.019904 0.63787,5.634469 0,1.063107 -0.21263,5.102915 l -0.10631,3.933498 q 4.99661,-9.461656 12.43836,-16.797097 7.44175,-7.335441 13.28884,-7.335441 3.61457,0 5.42185,3.295633 1.91359,3.189322 2.0199,7.973305 0,5.209226 -4.0398,24.026227 -2.44515,11.48156 -3.9335,16.584475 -1.48835,5.102915 -2.65777,6.591266 -1.06311,1.382039 -3.08301,1.382039 -2.0199,0 -2.0199,-2.232525 0,-1.594661 3.72087,-20.730594 3.82719,-19.135933 3.82719,-25.727198 0,-4.465051 -1.48835,-4.465051 -0.9568,0 -3.29564,2.232525 -2.33883,2.232526 -5.52815,6.697577 -3.18933,4.35874 -6.59127,9.993209 -3.29563,5.634469 -6.59127,13.501464 -3.29563,7.760683 -5.42184,15.733989 -1.59466,5.84709 -4.8903,5.84709 -2.55145,0 -2.55145,-3.189322 z"
         style="font-style:oblique;font-variant:normal;font-weight:bold;font-stretch:normal;font-size:106.31073761px;font-family:Purisa;-inkscape-font-specification:'Purisa Bold Oblique';fill:#ffffff;fill-opacity:1;stroke:#000000;stroke-width:20;stroke-miterlimit:4;stroke-dasharray:none;stroke-opacity:1"
         id="path4537"
         inkscape:connector-curvature="0" />
      <path
         d="m 463.8425,50.092955 q 0.42525,-0.531553 0.42525,-0.956796 0,-0.425243 -0.53156,-1.063108 -0.53155,-0.637864 -1.91359,-1.913593 l -1.27573,-1.275729 q -2.76408,-2.551457 -4.14612,-3.189322 -1.38204,-0.637864 -4.0398,-0.637864 -5.31554,0 -7.97331,0.850486 -2.65777,0.744175 -5.9534,3.401943 -9.99321,8.079616 -10.52476,10.312142 0.42524,0.10631 1.80728,0.10631 10.31214,0 29.34176,-3.614565 1.91359,-0.318932 3.18932,-0.956796 1.27573,-0.637865 1.59466,-1.063108 z m 4.78399,18.817001 q 4.14612,-2.87039 5.74078,-2.87039 1.59466,0 1.59466,1.594661 0,2.126215 -4.03981,6.910198 -3.9335,4.677672 -8.39855,7.973305 -14.03301,10.205831 -26.68399,10.205831 -8.82379,0 -15.20244,-5.953401 -6.37864,-6.059712 -6.37864,-16.797097 0,-8.930102 3.72087,-15.733989 3.72088,-6.591266 12.96991,-13.714085 9.24904,-7.22913 16.37186,-7.22913 1.80728,0 5.52816,0.318932 5.63446,0.425243 7.86699,1.169418 2.23253,0.637865 4.89029,2.657769 2.55146,2.019904 4.35874,5.421847 1.9136,3.401944 1.9136,6.484955 0,2.232526 -1.06311,4.039808 -1.06311,1.700972 -2.44515,2.764079 -1.38204,1.063108 -3.93349,2.019904 -2.55146,0.850486 -4.46506,1.275729 -1.80728,0.425243 -4.78398,0.956797 -10.73738,2.019904 -21.7937,2.657768 l -9.35534,0.425243 -0.53156,2.76408 q -0.42524,2.338836 -0.42524,3.189322 0,4.996604 4.9966,9.993209 4.57137,4.677672 10.52477,4.677672 4.67767,0 10.52476,-2.764079 5.84709,-2.87039 10.09952,-6.272333 4.35874,-3.401944 8.39855,-6.166023 z"
         style="font-style:oblique;font-variant:normal;font-weight:bold;font-stretch:normal;font-size:106.31073761px;font-family:Purisa;-inkscape-font-specification:'Purisa Bold Oblique';fill:#ffffff;fill-opacity:1;stroke:#000000;stroke-width:20;stroke-miterlimit:4;stroke-dasharray:none;stroke-opacity:1"
         id="path4539"
         inkscape:connector-curvature="0" />
    </g>
  </g>
</svg>
